<svg width="20" height="18" viewBox="0 0 20 18" fill="none" xmlns="http://www.w3.org/2000/svg">
<path d="M19.8507 8.24C19.0456 6.49393 17.8664 4.94627 16.3966 3.70667L18.9232 1.18L17.7441 0L14.9999 2.74167C13.481 1.8631 11.7545 1.40758 9.99989 1.4225C3.74989 1.4225 0.880726 6.64 0.149059 8.24C0.0508413 8.45442 0 8.68749 0 8.92333C0 9.15918 0.0508413 9.39225 0.149059 9.60667C0.954173 11.3527 2.13341 12.9004 3.60323 14.14L1.07739 16.6667L2.25573 17.845L4.99989 15.1033C6.51876 15.9819 8.2453 16.4374 9.99989 16.4225C16.2499 16.4225 19.1191 11.205 19.8507 9.605C19.9487 9.39082 19.9995 9.15804 19.9995 8.9225C19.9995 8.68696 19.9487 8.45418 19.8507 8.24ZM4.99989 8.9225C4.99831 8.00467 5.24982 7.10417 5.72677 6.32C6.20372 5.53582 6.88765 4.89833 7.70337 4.47759C8.51908 4.05686 9.43501 3.86917 10.3505 3.93517C11.2659 4.00116 12.1455 4.31828 12.8924 4.85167L11.6824 6.06167C11.1744 5.75533 10.5931 5.59207 9.99989 5.58917C9.11584 5.58917 8.26799 5.94036 7.64287 6.56548C7.01775 7.1906 6.66656 8.03844 6.66656 8.9225C6.66946 9.51568 6.83273 10.097 7.13906 10.605L5.92906 11.815C5.32486 10.9715 4.99994 9.96004 4.99989 8.9225ZM9.99989 13.9225C8.96235 13.9225 7.95086 13.5975 7.10739 12.9933L8.31739 11.7833C8.82536 12.0897 9.40671 12.2529 9.99989 12.2558C10.8839 12.2558 11.7318 11.9046 12.3569 11.2795C12.982 10.6544 13.3332 9.80655 13.3332 8.9225C13.3303 8.32932 13.1671 7.74797 12.8607 7.24L14.0707 6.03C14.6041 6.77694 14.9212 7.65647 14.9872 8.57193C15.0532 9.48738 14.8655 10.4033 14.4448 11.219C14.0241 12.0347 13.3866 12.7187 12.6024 13.1956C11.8182 13.6726 10.9177 13.9241 9.99989 13.9225Z" fill="#ED4C28"/>
</svg>
